# xmcd CD database file
#
# Track frame offsets:
#	182
#	12800
#	25777
#	38445
#	50570
#	62885
#	75840
#	90537
#	104520
#	116877
#	130460
#	144750
#	157205
#	170842
#	183287
#	196425
#	209350
#	223542
#	236545
#	250705
#	265330
#	280042
#
# Disc length: 3923 seconds
#
# Revision: 0
# Processed by: cddbd v1.5.2PL0 Copyright (c) Steve Scherf et al.
# Submitted via: CDex 1.70beta2
#
DISCID=340f5116
DTITLE=Putney Dandridge and his orchestra - 1935-1936
DYEAR=1935
DGENRE=Jazz
TTITLE0=You're A Heavenly Thing
TTITLE1=Mr. Bluebird
TTITLE2=Nagasaki
TTITLE3=Chasing Shadows
TTITLE4=When I Grow Too Old To Dream
TTITLE5=I'm In The Mood For Love
TTITLE6=Isn't This A Lovely Day
TTITLE7=Cheek To Cheek
TTITLE8=That's What You Think
TTITLE9=Shine
TTITLE10=I'm On A See-Saw
TTITLE11=Eeny Meeny Miney Mo
TTITLE12=Double Trouble
TTITLE13=Santa Claus Came In The Spring
TTITLE14=You Hit The Spot
TTITLE15=No Other One
TTITLE16=A Little Bit Independent
TTITLE17=You Took My Breath Away
TTITLE18=Sweet Violets
TTITLE19=Dinner For One Please, James
TTITLE20=A Beautiful Lady In Blue
TTITLE21=Honeysuckle Rose
EXTD=YEAR: 1935
EXTT0=
EXTT1=
EXTT2=
EXTT3=
EXTT4=
EXTT5=
EXTT6=
EXTT7=
EXTT8=
EXTT9=
EXTT10=
EXTT11=
EXTT12=
EXTT13=
EXTT14=
EXTT15=
EXTT16=
EXTT17=
EXTT18=
EXTT19=
EXTT20=
EXTT21=
PLAYORDER=
